<svg height="898pt" preserveAspectRatio="xMidYMid meet" viewBox="0 0 898 898" width="898pt" xmlns="http://www.w3.org/2000/svg"><path d="m0 8540c0-242 2-440 4-440s23 18 47 39c23 22 46 38 51 35s6-10 2-15c-3-6-8-9-10-6-2 2-24-15-49-38l-45-41v-3584-3584l44-41c24-22 48-41 53-43 13-6 15-10 6-15-5-3-29 12-52 34-24 21-45 39-47 39s-4-198-4-440v-440h563l562 1-38 32c-52 44-47 55 8 16 25-18 45-36 45-41 0-4 1508-8 3350-8 1843 0 3350 4 3350 8 0 5 20 23 45 41 55 39 60 28 8-16l-38-32 563-1h562v440c0 242-2 440-4 440s-23-18-47-39c-23-22-46-38-51-35s-6 10-2 15c3 6 8 9 10 6 2-2 24 15 49 38l45 41v3584 3584l-46 42c-25 23-47 43-50 43-2 1-4 4-5 7-2 16 11 10 50-26 24-22 45-40 47-40s4 198 4 440v440h-562l-563-1 38-32c52-44 47-55-8-16-25 18-45 36-45 41 0 4-1507 8-3350 8-1842 0-3350-4-3350-8 0-5-20-23-45-41-55-39-60-28-8 16l38 32-562 1h-563zm950 282c0-11-107-92-122-92-7 0-4 6 7 12s22 15 25 19c6 9 81 69 86 69 2 0 4-3 4-8zm7148-41c18-17 40-35 50-40 11-7 12-11 4-11-16 0-122 81-122 93 0 11 30-7 68-42zm-7393-140c-3-6-14-11-23-11-15 1-15 2 2 15 21 16 32 13 21-4zm7601-8c-8-8-36 5-36 17 0 7 6 7 21 0 11-7 18-14 15-17zm-7641-23c-3-5-11-10-16-10-6 0-7 5-4 10 3 6 11 10 16 10 6 0 7-4 4-10zm7670 0c3-5 2-10-4-10-5 0-13 5-16 10-3 6-2 10 4 10 5 0 13-4 16-10zm-7783-92c-7-7-12-8-12-2 0 14 12 26 19 19 2-3-1-11-7-17zm7888 1c0-6-4-7-10-4-5 3-10 11-10 16 0 6 5 7 10 4 6-3 10-11 10-16zm-7920-24c-7-8-17-15-22-15-6 0-5 7 2 15s17 15 22 15c6 0 5-7-2-15zm7960 0c7-8 8-15 2-15-5 0-15 7-22 15s-8 15-2 15c5 0 15-7 22-15zm-8086-120c-6-16-24-21-24-7 0 11 11 22 21 22 5 0 6-7 3-15zm8214-3c2-7-2-10-12-6-9 3-16 11-16 16 0 13 23 5 28-10zm-8250-23c-2-6-8-11-13-12-6-1-19-13-31-26-11-13-26-22-33-20-6 2 7 19 30 37 46 35 53 38 47 21zm8327-34c22-18 25-25 13-25-9 0-26 12-38 28-12 15-25 26-28 24-4-2-8 2-10 8-5 15 20 1 63-35zm-8465-80c-7-8-17-15-23-15-5 0-2 9 8 20 21 23 35 19 15-5zm8565-13c-6-7-35 18-35 31 0 5 9 2 20-8s18-20 15-23zm-8625-32c0-5-5-10-11-10-5 0-7 5-4 10 3 6 8 10 11 10 2 0 4-4 4-10zm8675 0c3-5 1-10-4-10-6 0-11 5-11 10 0 6 2 10 4 10 3 0 8-4 11-10zm-8675-7400c0-5-2-10-4-10-3 0-8 5-11 10-3 6-1 10 4 10 6 0 11-4 11-10zm8680 6c0-3-4-8-10-11-5-3-10-1-10 4 0 6 5 11 10 11 6 0 10-2 10-4zm-8620-51c20-24 6-28-15-5-10 11-13 20-8 20 6 0 16-7 23-15zm8555-5c-10-11-20-18-23-15-7 6 18 35 31 35 5 0 2-9-8-20zm-8455-77c12-16 25-27 28-25 4 2 8-2 10-8 5-15-20-1-63 35-22 18-25 25-13 25 9 0 26-12 38-27zm8365 2c-43-36-68-50-63-35 2 6 6 10 10 8 3-2 16 9 28 25 12 15 29 27 38 27 12 0 9-7-13-25zm-8291-61c4-10 1-14-6-12-15 5-23 28-10 28 5 0 13-7 16-16zm8208-6c-6-6-15-8-19-4s-1 11 7 16c19 12 27 3 12-12zm-8082-113c7-8 8-15 2-15-5 0-15 7-22 15s-8 15-2 15c5 0 15-7 22-15zm7960 0c-7-8-17-15-22-15-6 0-5 7 2 15s17 15 22 15c6 0 5-7-2-15zm-7920-36c0-6-4-7-10-4-5 3-10 11-10 16 0 6 5 7 10 4 6-3 10-11 10-16zm7872-1c-7-7-12-8-12-2 0 14 12 26 19 19 2-3-1-11-7-17zm-7767-78c3-5 2-10-4-10-5 0-13 5-16 10-3 6-2 10 4 10 5 0 13-4 16-10zm7670 0c-3-5-11-10-16-10-6 0-7 5-4 10 3 6 11 10 16 10 6 0 7-4 4-10zm-7630-31c11-17 0-20-21-4-17 13-17 14-2 15 9 0 20-5 23-11zm7591-4c-21-16-32-13-21 4 3 6 14 11 23 11 15-1 15-2-2-15zm-7400-127c30-24 54-46 54-51 0-11-30 7-68 42-18 17-40 35-50 40-11 7-12 11-4 11s38-19 68-42zm7252 31c-10-5-32-23-50-40-38-35-72-56-67-41 7 17 103 91 119 91 12 0 11-2-2-10z" transform="matrix(.1 0 0 -.1 0 898)"/></svg>