<?xml version="1.0" standalone="no"?>
<!DOCTYPE svg PUBLIC "-//W3C//DTD SVG 20010904//EN"
 "http://www.w3.org/TR/2001/REC-SVG-20010904/DTD/svg10.dtd">
<svg version="1.0" xmlns="http://www.w3.org/2000/svg"
 width="898.000000pt" height="898.000000pt" viewBox="0 0 898.000000 898.000000"
 preserveAspectRatio="xMidYMid meet">
<metadata>
Created by potrace 1.11, written by Peter Selinger 2001-2013
</metadata>
<g transform="translate(0.000000,898.000000) scale(0.100000,-0.100000)"
fill="#000000" stroke="none">
<path d="M0 8540 c0 -242 2 -440 4 -440 2 0 23 18 47 39 23 22 46 38 51 35 5
-3 6 -10 2 -15 -3 -6 -8 -9 -10 -6 -2 2 -24 -15 -49 -38 l-45 -41 0 -3584 0
-3584 44 -41 c24 -22 48 -41 53 -43 13 -6 15 -10 6 -15 -5 -3 -29 12 -52 34
-24 21 -45 39 -47 39 -2 0 -4 -198 -4 -440 l0 -440 563 0 562 1 -38 32 c-52
44 -47 55 8 16 25 -18 45 -36 45 -41 0 -4 1508 -8 3350 -8 1843 0 3350 4 3350
8 0 5 20 23 45 41 55 39 60 28 8 -16 l-38 -32 563 -1 562 0 0 440 c0 242 -2
440 -4 440 -2 0 -23 -18 -47 -39 -23 -22 -46 -38 -51 -35 -5 3 -6 10 -2 15 3
6 8 9 10 6 2 -2 24 15 49 38 l45 41 0 3584 0 3584 -46 42 c-25 23 -47 43 -50
43 -2 1 -4 4 -5 7 -2 16 11 10 50 -26 24 -22 45 -40 47 -40 2 0 4 198 4 440
l0 440 -562 0 -563 -1 38 -32 c52 -44 47 -55 -8 -16 -25 18 -45 36 -45 41 0 4
-1507 8 -3350 8 -1842 0 -3350 -4 -3350 -8 0 -5 -20 -23 -45 -41 -55 -39 -60
-28 -8 16 l38 32 -562 1 -563 0 0 -440z m950 282 c0 -11 -107 -92 -122 -92 -7
0 -4 6 7 12 11 6 22 15 25 19 6 9 81 69 86 69 2 0 4 -3 4 -8z m7148 -41 c18
-17 40 -35 50 -40 11 -7 12 -11 4 -11 -16 0 -122 81 -122 93 0 11 30 -7 68
-42z m-7393 -140 c-3 -6 -14 -11 -23 -11 -15 1 -15 2 2 15 21 16 32 13 21 -4z
m7601 -8 c-8 -8 -36 5 -36 17 0 7 6 7 21 0 11 -7 18 -14 15 -17z m-7641 -23
c-3 -5 -11 -10 -16 -10 -6 0 -7 5 -4 10 3 6 11 10 16 10 6 0 7 -4 4 -10z
m7670 0 c3 -5 2 -10 -4 -10 -5 0 -13 5 -16 10 -3 6 -2 10 4 10 5 0 13 -4 16
-10z m-7783 -92 c-7 -7 -12 -8 -12 -2 0 14 12 26 19 19 2 -3 -1 -11 -7 -17z
m7888 1 c0 -6 -4 -7 -10 -4 -5 3 -10 11 -10 16 0 6 5 7 10 4 6 -3 10 -11 10
-16z m-7920 -24 c-7 -8 -17 -15 -22 -15 -6 0 -5 7 2 15 7 8 17 15 22 15 6 0 5
-7 -2 -15z m7960 0 c7 -8 8 -15 2 -15 -5 0 -15 7 -22 15 -7 8 -8 15 -2 15 5 0
15 -7 22 -15z m-8086 -120 c-6 -16 -24 -21 -24 -7 0 11 11 22 21 22 5 0 6 -7
3 -15z m8214 -3 c2 -7 -2 -10 -12 -6 -9 3 -16 11 -16 16 0 13 23 5 28 -10z
m-8250 -23 c-2 -6 -8 -11 -13 -12 -6 -1 -19 -13 -31 -26 -11 -13 -26 -22 -33
-20 -6 2 7 19 30 37 46 35 53 38 47 21z m8327 -34 c22 -18 25 -25 13 -25 -9 0
-26 12 -38 28 -12 15 -25 26 -28 24 -4 -2 -8 2 -10 8 -5 15 20 1 63 -35z
m-8465 -80 c-7 -8 -17 -15 -23 -15 -5 0 -2 9 8 20 21 23 35 19 15 -5z m8565
-13 c-6 -7 -35 18 -35 31 0 5 9 2 20 -8 11 -10 18 -20 15 -23z m-8625 -32 c0
-5 -5 -10 -11 -10 -5 0 -7 5 -4 10 3 6 8 10 11 10 2 0 4 -4 4 -10z m8675 0 c3
-5 1 -10 -4 -10 -6 0 -11 5 -11 10 0 6 2 10 4 10 3 0 8 -4 11 -10z m-8675
-7400 c0 -5 -2 -10 -4 -10 -3 0 -8 5 -11 10 -3 6 -1 10 4 10 6 0 11 -4 11 -10z
m8680 6 c0 -3 -4 -8 -10 -11 -5 -3 -10 -1 -10 4 0 6 5 11 10 11 6 0 10 -2 10
-4z m-8620 -51 c20 -24 6 -28 -15 -5 -10 11 -13 20 -8 20 6 0 16 -7 23 -15z
m8555 -5 c-10 -11 -20 -18 -23 -15 -7 6 18 35 31 35 5 0 2 -9 -8 -20z m-8455
-77 c12 -16 25 -27 28 -25 4 2 8 -2 10 -8 5 -15 -20 -1 -63 35 -22 18 -25 25
-13 25 9 0 26 -12 38 -27z m8365 2 c-43 -36 -68 -50 -63 -35 2 6 6 10 10 8 3
-2 16 9 28 25 12 15 29 27 38 27 12 0 9 -7 -13 -25z m-8291 -61 c4 -10 1 -14
-6 -12 -15 5 -23 28 -10 28 5 0 13 -7 16 -16z m8208 -6 c-6 -6 -15 -8 -19 -4
-4 4 -1 11 7 16 19 12 27 3 12 -12z m-8082 -113 c7 -8 8 -15 2 -15 -5 0 -15 7
-22 15 -7 8 -8 15 -2 15 5 0 15 -7 22 -15z m7960 0 c-7 -8 -17 -15 -22 -15 -6
0 -5 7 2 15 7 8 17 15 22 15 6 0 5 -7 -2 -15z m-7920 -36 c0 -6 -4 -7 -10 -4
-5 3 -10 11 -10 16 0 6 5 7 10 4 6 -3 10 -11 10 -16z m7872 -1 c-7 -7 -12 -8
-12 -2 0 14 12 26 19 19 2 -3 -1 -11 -7 -17z m-7767 -78 c3 -5 2 -10 -4 -10
-5 0 -13 5 -16 10 -3 6 -2 10 4 10 5 0 13 -4 16 -10z m7670 0 c-3 -5 -11 -10
-16 -10 -6 0 -7 5 -4 10 3 6 11 10 16 10 6 0 7 -4 4 -10z m-7630 -31 c11 -17
0 -20 -21 -4 -17 13 -17 14 -2 15 9 0 20 -5 23 -11z m7591 -4 c-21 -16 -32
-13 -21 4 3 6 14 11 23 11 15 -1 15 -2 -2 -15z m-7400 -127 c30 -24 54 -46 54
-51 0 -11 -30 7 -68 42 -18 17 -40 35 -50 40 -11 7 -12 11 -4 11 8 0 38 -19
68 -42z m7252 31 c-10 -5 -32 -23 -50 -40 -38 -35 -72 -56 -67 -41 7 17 103
91 119 91 12 0 11 -2 -2 -10z"/>
</g>
</svg>
